<?xml version="1.0" encoding="utf-8"?>
<!-- Generator: Adobe Illustrator 21.0.0, SVG Export Plug-In . SVG Version: 6.00 Build 0)  -->
<svg version="1.1" id="圖層_1" xmlns="http://www.w3.org/2000/svg" xmlns:xlink="http://www.w3.org/1999/xlink" x="0px" y="0px"
	 viewBox="0 0 60 60" style="enable-background:new 0 0 60 60;" xml:space="preserve">
<path d="M26.3,26.7c-0.2-0.2-0.4-0.3-0.7-0.3c0,0,0,0,0,0c-0.3,0-0.5,0.1-0.7,0.3l-2.3,2.4c-0.4,0.4-0.4,1,0,1.4l5.5,5.6
	c0.2,0.2,0.4,0.3,0.7,0.3c0.3,0,0.5-0.1,0.7-0.3l13.3-13.6c0.4-0.4,0.4-1,0-1.4l-2.3-2.4c-0.2-0.2-0.4-0.3-0.7-0.3
	c-0.3,0-0.5,0.1-0.7,0.3L28.7,29.2L26.3,26.7z M29.4,31.4l10.3-10.5l0.9,1L28.7,34l-4.1-4.2l0.9-1l2.5,2.5
	C28.4,31.7,29.1,31.7,29.4,31.4z"/>
<path d="M12.2,27c0.1,0,0.1,0,0.2,0c0.5,0,0.9-0.3,1-0.8C15,18.7,21.5,13.1,29,12.6v1.2c0,0.6,0.4,1,1,1s1-0.4,1-1V8
	c0-0.6-0.4-1-1-1s-1,0.4-1,1v2.6c-8.5,0.5-15.8,6.7-17.6,15.2C11.3,26.4,11.7,26.9,12.2,27z"/>
<path d="M34.6,19c-1.4-0.6-3-0.9-4.6-0.9c-6.4,0-11.7,5.3-11.7,11.9c0,6.6,5.2,11.9,11.7,11.9s11.7-5.3,11.7-11.9
	c0-0.6-0.1-1.3-0.2-1.9c-0.1-0.5-0.6-0.9-1.1-0.8c-0.5,0.1-0.9,0.6-0.8,1.1c0.1,0.5,0.1,1.1,0.1,1.6c0,5.5-4.3,9.9-9.7,9.9
	s-9.7-4.4-9.7-9.9c0-5.5,4.3-9.9,9.7-9.9c1.3,0,2.6,0.3,3.8,0.8c0.5,0.2,1.1,0,1.3-0.5C35.3,19.8,35.1,19.2,34.6,19z"/>
<path d="M27.3,47.1c-7.8-1.5-13.5-8.2-13.9-16.2h0.8c0.6,0,1-0.4,1-1s-0.4-1-1-1H8.5c-0.6,0-1,0.4-1,1s0.4,1,1,1h3
	c0.4,9,6.8,16.5,15.5,18.2c0.1,0,0.1,0,0.2,0c0.5,0,0.9-0.3,1-0.8C28.2,47.8,27.9,47.2,27.3,47.1z"/>
<path d="M48.2,33c-0.5-0.1-1.1,0.2-1.2,0.8c-1.6,7.6-8.1,13.2-15.6,13.6v-1.2c0-0.6-0.4-1-1-1s-1,0.4-1,1V52c0,0.6,0.4,1,1,1
	s1-0.4,1-1v-2.6c8.5-0.5,15.8-6.7,17.6-15.2C49.1,33.6,48.7,33.1,48.2,33z"/>
<path d="M51.5,28.9h-2.6c-0.4-8.9-6.8-16.4-15.5-18c-0.5-0.1-1.1,0.3-1.2,0.8c-0.1,0.5,0.3,1.1,0.8,1.2c7.7,1.4,13.4,8.1,13.9,16.1
	h-1.2c-0.6,0-1,0.4-1,1s0.4,1,1,1h5.8c0.6,0,1-0.4,1-1S52.1,28.9,51.5,28.9z"/>
</svg>
