<?xml version="1.0" encoding="utf-8"?>
<!-- Generator: Adobe Illustrator 21.0.0, SVG Export Plug-In . SVG Version: 6.00 Build 0)  -->
<svg version="1.1" id="圖層_1" xmlns="http://www.w3.org/2000/svg" xmlns:xlink="http://www.w3.org/1999/xlink" x="0px" y="0px"
	 viewBox="0 0 439.6 61.5" style="enable-background:new 0 0 439.6 61.5;" xml:space="preserve">
<style type="text/css">
	.st0{fill-rule:evenodd;clip-rule:evenodd;fill:#FDD100;}
	.st1{fill-rule:evenodd;clip-rule:evenodd;}
</style>
<path class="st0" d="M13.6,54L41.2,0H26.4L0,54H13.6z M34,54L60.7,0H49.3L23.1,54H34z M47.8,54L74.3,0h-8L40.1,54H47.8z"/>
<polygon class="st1" points="43.6,32.1 51,54.2 58.3,32.1 67.2,32.1 67.2,60.9 61.3,60.9 61.7,38.5 54.3,60.9 47.9,60.9 40.2,38.3 
	40.8,60.9 34.7,60.9 34.6,32.1 "/>
<path class="st1" d="M78,46.3c0,7,2.3,10.3,7.8,10.3c5.3,0,7.8-3.3,7.8-10c0-6.8-2.5-10-7.8-10C80.5,36.5,78,39.7,78,46.3z
	 M85.8,31.5c9.8,0,14.4,4.8,14.4,15c0,10.2-4.6,15-14.4,15c-10,0-14.4-4.8-14.4-15.3C71.3,36.3,76,31.5,85.8,31.5z"/>
<polygon class="st1" points="101.3,37.1 101.3,32.1 126.3,32.1 126.3,37.1 116.9,37.1 116.9,60.9 110.7,60.9 110.7,37.1 "/>
<path class="st1" d="M134.1,46.3c0,7,2.3,10.3,7.8,10.3c5.4,0,7.8-3.2,7.8-10c0-6.8-2.5-10.1-7.8-10.1
	C136.6,36.4,134.1,39.7,134.1,46.3z M141.8,31.5c9.8,0,14.4,4.8,14.4,15c0,10.2-4.6,15-14.4,15c-9.9,0-14.4-4.8-14.4-15.3
	C127.4,36.3,132.1,31.5,141.8,31.5z"/>
<path class="st1" d="M166.5,37.2v7.3h7.4c3.6,0,5.4-0.7,5.4-3.6c0-3-1.8-3.6-5.4-3.6L166.5,37.2z M175.4,32c6.8,0,10.1,2.6,10.1,8.7
	c0,4.5-2.1,7.3-5.8,8.1l7.2,12l-6.8,0l-6.4-11.3h-7.2l0,11.3h-6.1l0-28.8H175.4z"/>
<path class="st1" d="M200.1,37.2c-3.2,0-4.7,1.1-4.7,3.8c0,2.1,1.3,3.1,3.8,3.1h8c6.5,0,9.2,2.1,9.2,8.1c0,6.1-3.3,8.6-10.1,8.6
	l-16.2,0v-5.1h15.2c3.2,0,4.7-0.8,4.7-3.3c0-2.6-1.4-3.3-4.3-3.3h-7.2c-6.6,0-9.6-2.5-9.6-8.3c0-6.3,3.2-8.8,10.1-8.8l15.9,0l0,5.1
	L200.1,37.2z"/>
<path class="st1" d="M246.4,61.4c-6.7,0-10.5-3.1-10.5-7.9c0-2.9,1.3-5.2,3.9-6.8c-2.6-1.6-3.9-4-3.9-7.1c0-4.7,3.1-7.6,8.7-7.6
	l9.7,0v5.3l-8.2,0c-2.8,0-4.3,1.4-4.3,3.3c0,2.2,1.3,3.4,3.7,3.4h2V49h-1.9c-2.1,0-3.5,1.4-3.5,3.4c0,2.3,1.7,3.8,4.7,3.8
	c4.4,0,7-2.3,8.1-7.2h-4.1v-4.9h14V49l-3.6,0C259.4,57.4,254.6,61.4,246.4,61.4z"/>
<path class="st1" d="M290.7,37v18.8l7.1,0c5.4,0,7.1-2.3,7.1-9.4c0-7-1.7-9.4-7.1-9.4H290.7z M297.9,32c9.3,0,13.6,4.7,13.6,14.9
	c0,5.2-1.5,9-4.4,11.4c-2.8,2.3-5.5,2.5-9,2.5l-13.4,0l0-28.8H297.9z"/>
<path class="st1" d="M321.8,37.1v7.3l7.5,0c3.6,0,5.4-0.7,5.4-3.7c0-3-1.8-3.6-5.4-3.6H321.8z M330.6,32c6.9,0,10.1,2.6,10.1,8.7
	c0,4.5-2.1,7.3-5.8,8.1l7.2,12h-6.9l-6.4-11.3l-7.2,0l0,11.3h-6.1l0-28.8H330.6z"/>
<polygon class="st1" points="346,60.8 345.9,32 352.3,32 352.3,60.8 "/>
<polygon class="st1" points="354,32 360.9,32 369.6,53.5 378.5,32 385,32 372.9,60.8 366.6,60.8 "/>
<path class="st1" d="M391.6,43.7h16.8v5h-16.9c0,5.2,2.1,7.1,6.9,7.1h10v5h-10.3c-3.5,0-6.2-0.3-9-2.5c-3-2.4-4.4-6.1-4.4-11.3
	c0-10.2,4.3-14.9,13.6-14.9h10.1v5h-10C394.1,37,391.9,39.2,391.6,43.7z"/>
<path class="st1" d="M423.2,37.1c-3.2,0-4.7,1.1-4.7,3.8c0,2.1,1.3,3.1,3.8,3.1h8c6.5,0,9.2,2.1,9.2,8.1c0,6-3.3,8.6-10.1,8.6h-16.2
	v-5.1h15.2c3.2,0,4.7-0.8,4.7-3.3c0-2.6-1.4-3.3-4.3-3.3h-7.2c-6.6,0-9.6-2.5-9.6-8.3c0-6.3,3.3-8.8,10.1-8.9h15.9v5.1H423.2z"/>
</svg>
