<?xml version="1.0" encoding="utf-8"?>
<!-- Generator: Adobe Illustrator 21.0.0, SVG Export Plug-In . SVG Version: 6.00 Build 0)  -->
<svg version="1.1" id="圖層_1" xmlns="http://www.w3.org/2000/svg" xmlns:xlink="http://www.w3.org/1999/xlink" x="0px" y="0px"
	 viewBox="0 0 60 60" style="enable-background:new 0 0 60 60;" xml:space="preserve">
<path d="M16.4,16.1h1.3c0.3,0,0.6-0.2,0.7-0.5c0.1-0.5,0.4-1,0.6-1.5c0.2-0.3,0.1-0.6-0.1-0.9L18,12.3l1.3-1.3l0.9,0.9
	c0.2,0.2,0.6,0.3,0.9,0.1c0.5-0.3,1-0.5,1.5-0.6c0.3-0.1,0.5-0.4,0.5-0.7V9.4h1.8v1.3c0,0.3,0.2,0.6,0.5,0.7c0.5,0.1,1,0.3,1.5,0.6
	c0.3,0.2,0.6,0.1,0.9-0.1l0.9-0.9l1.3,1.3l-0.9,0.9c-0.2,0.2-0.3,0.6-0.1,0.9c0.3,0.5,0.5,1,0.6,1.5c0.1,0.3,0.4,0.5,0.7,0.5h1.3
	v1.8h-1.3c-0.3,0-0.6,0.2-0.7,0.5c-0.1,0.5-0.3,1-0.6,1.5c-0.2,0.3-0.1,0.6,0.1,0.9l0.9,0.9L28.7,23l-0.9-0.9
	c-0.2-0.2-0.6-0.3-0.9-0.1c-0.5,0.3-1,0.5-1.5,0.6c-0.3,0.1-0.5,0.4-0.5,0.7v1.3h-1.8v-1.3c0-0.3-0.2-0.6-0.5-0.7
	c-0.5-0.1-1-0.3-1.5-0.6c-0.3-0.2-0.6-0.1-0.9,0.1L19.3,23L18,21.7l0.9-0.9c0.2-0.2,0.3-0.6,0.1-0.9c-0.3-0.5-0.5-1-0.6-1.5
	c-0.1-0.3-0.4-0.5-0.7-0.5h-1.3V16.1z M15.7,19.4h1.4c0.1,0.3,0.2,0.6,0.3,0.8l-1,1c-0.3,0.3-0.3,0.7,0,1l2.3,2.3
	c0.1,0.1,0.3,0.2,0.5,0.2c0.2,0,0.4-0.1,0.5-0.2l1-1c0.3,0.1,0.6,0.3,0.8,0.4v1.4c0,0.4,0.3,0.7,0.7,0.7h3.3c0.4,0,0.7-0.3,0.7-0.7
	v-1.4c0.3-0.1,0.6-0.2,0.8-0.4l1,1c0.1,0.1,0.3,0.2,0.5,0.2s0.4-0.1,0.5-0.2l2.3-2.3c0.3-0.3,0.3-0.7,0-1l-1-1
	c0.1-0.3,0.3-0.6,0.3-0.8h1.4c0.4,0,0.7-0.3,0.7-0.7v-3.3c0-0.4-0.3-0.7-0.7-0.7h-1.4c-0.1-0.3-0.2-0.6-0.3-0.8l1-1
	c0.3-0.3,0.3-0.7,0-1l-2.3-2.3c-0.1-0.1-0.3-0.2-0.5-0.2s-0.4,0.1-0.5,0.2l-1,1c-0.3-0.1-0.6-0.3-0.8-0.4V8.7C26.4,8.3,26,8,25.6,8
	h-3.3c-0.4,0-0.7,0.3-0.7,0.7v1.4c-0.3,0.1-0.6,0.2-0.8,0.4l-1-1c-0.1-0.1-0.3-0.2-0.5-0.2c-0.2,0-0.4,0.1-0.5,0.2l-2.3,2.3
	c-0.3,0.3-0.3,0.7,0,1l1,1c-0.1,0.3-0.3,0.6-0.3,0.8h-1.4c-0.4,0-0.7,0.3-0.7,0.7v3.3C15,19,15.3,19.4,15.7,19.4z"/>
<path d="M24,14.4c1.4,0,2.6,1.2,2.6,2.6s-1.2,2.6-2.6,2.6c-1.4,0-2.6-1.2-2.6-2.6S22.6,14.4,24,14.4z M24,21c2.2,0,4-1.8,4-4
	s-1.8-4-4-4s-4,1.8-4,4S21.8,21,24,21z"/>
<path d="M42.9,30.5c-0.8,0-1.5-0.7-1.5-1.5c0-0.8,0.7-1.5,1.5-1.5c0.8,0,1.5,0.7,1.5,1.5C44.3,29.9,43.7,30.5,42.9,30.5z M42.9,26.1
	c-1.6,0-2.9,1.3-2.9,2.9c0,1.6,1.3,2.9,2.9,2.9c1.6,0,2.9-1.3,2.9-2.9C45.8,27.4,44.5,26.1,42.9,26.1z"/>
<path d="M52.6,30.4h-1.8c-0.3,0-0.6,0.2-0.7,0.5c-0.2,0.7-0.5,1.3-0.8,1.9c-0.2,0.3-0.1,0.6,0.1,0.9l1.2,1.2l-1.9,1.9l-1.2-1.2
	c-0.2-0.2-0.6-0.3-0.9-0.1c-0.6,0.4-1.3,0.6-1.9,0.8c-0.3,0.1-0.5,0.4-0.5,0.7v1.8h-2.7v-1.8c0-0.3-0.2-0.6-0.5-0.7
	c-0.7-0.2-1.3-0.4-1.9-0.8c-0.3-0.2-0.7-0.1-0.9,0.1L37,36.8l-1.9-1.9l1.2-1.2c0.2-0.2,0.3-0.6,0.1-0.9c-0.4-0.6-0.6-1.3-0.8-1.9
	c-0.1-0.3-0.4-0.5-0.7-0.5h-1.8v-2.7h1.8c0.3,0,0.6-0.2,0.7-0.5c0.2-0.7,0.4-1.3,0.8-1.9c0.2-0.3,0.1-0.6-0.1-0.9l-1.2-1.2l1.9-1.9
	l1.2,1.2c0.2,0.2,0.6,0.3,0.9,0.1c0.6-0.4,1.3-0.6,1.9-0.8c0.3-0.1,0.5-0.4,0.5-0.7v-1.7h2.7v1.7c0,0.3,0.2,0.6,0.5,0.7
	c0.7,0.2,1.3,0.4,1.9,0.8c0.3,0.2,0.6,0.1,0.9-0.1l1.2-1.2l1.9,1.9l-1.2,1.2c-0.2,0.2-0.3,0.6-0.1,0.9c0.3,0.6,0.6,1.2,0.8,1.9
	c0.1,0.3,0.4,0.5,0.7,0.5h1.8V30.4z M53.3,26.3h-1.9c-0.1-0.4-0.3-0.9-0.5-1.3l1.4-1.4c0.3-0.3,0.3-0.7,0-1l-2.9-2.9
	c-0.3-0.3-0.7-0.3-1,0l-1.4,1.4c-0.4-0.2-0.8-0.4-1.3-0.5v-1.9c0-0.4-0.3-0.7-0.7-0.7h-4.1c-0.4,0-0.7,0.3-0.7,0.7v1.9
	c-0.4,0.1-0.9,0.3-1.3,0.5l-1.4-1.4c-0.3-0.3-0.7-0.3-1,0l-2.9,2.9c-0.3,0.3-0.3,0.7,0,1l1.4,1.4c-0.2,0.4-0.4,0.8-0.5,1.3h-1.9
	c-0.4,0-0.7,0.3-0.7,0.7v4.1c0,0.4,0.3,0.7,0.7,0.7h1.9c0.1,0.4,0.3,0.9,0.5,1.3l-1.4,1.4c-0.1,0.1-0.2,0.3-0.2,0.5
	c0,0.2,0.1,0.4,0.2,0.5l2.9,2.9c0.3,0.3,0.7,0.3,1,0l1.4-1.4c0.4,0.2,0.8,0.4,1.3,0.5v1.9c0,0.4,0.3,0.7,0.7,0.7h4.1
	c0.4,0,0.7-0.3,0.7-0.7v-1.9c0.4-0.1,0.9-0.3,1.3-0.5l1.4,1.4c0.3,0.3,0.7,0.3,1,0l2.9-2.9c0.3-0.3,0.3-0.7,0-1l-1.4-1.4
	c0.2-0.4,0.4-0.8,0.5-1.3h1.9c0.4,0,0.7-0.3,0.7-0.7V27C54,26.6,53.7,26.3,53.3,26.3z"/>
<path d="M42.9,33.5c-2.5,0-4.5-2-4.5-4.4s2-4.5,4.5-4.5c2.5,0,4.5,2,4.5,4.5S45.3,33.5,42.9,33.5z M42.9,23.2
	c-3.3,0-5.9,2.6-5.9,5.9c0,3.2,2.6,5.9,5.9,5.9c3.3,0,5.9-2.6,5.9-5.9C48.8,25.8,46.1,23.2,42.9,23.2z"/>
<path d="M30.8,40.2h-1.8c-0.3,0-0.6,0.2-0.7,0.5c-0.2,0.7-0.4,1.3-0.8,1.9c-0.2,0.3-0.1,0.6,0.1,0.9l1.2,1.2L27,46.7l-1.2-1.2
	c-0.2-0.2-0.6-0.3-0.9-0.1c-0.6,0.3-1.3,0.6-1.9,0.8c-0.3,0.1-0.5,0.4-0.5,0.7v1.7h-2.7v-1.7c0-0.3-0.2-0.6-0.5-0.7
	c-0.7-0.2-1.3-0.4-1.9-0.8c-0.3-0.2-0.6-0.1-0.9,0.1l-1.2,1.2l-1.9-1.9l1.2-1.2c0.2-0.2,0.3-0.6,0.1-0.9c-0.4-0.6-0.6-1.3-0.8-1.9
	c-0.1-0.3-0.4-0.5-0.7-0.5h-1.8v-2.6h1.8c0.3,0,0.6-0.2,0.7-0.5c0.2-0.7,0.4-1.3,0.8-1.9c0.2-0.3,0.1-0.6-0.1-0.9L13.3,33l1.9-1.9
	l1.2,1.2c0.2,0.2,0.6,0.3,0.9,0.1c0.6-0.3,1.3-0.6,1.9-0.8c0.3-0.1,0.5-0.4,0.5-0.7v-1.7h2.7V31c0,0.3,0.2,0.6,0.5,0.7
	c0.7,0.2,1.3,0.4,1.9,0.8c0.3,0.2,0.6,0.1,0.9-0.1l1.2-1.2l1.9,1.9l-1.2,1.2c-0.2,0.2-0.3,0.6-0.1,0.9c0.4,0.6,0.6,1.3,0.8,1.9
	c0.1,0.3,0.4,0.5,0.7,0.5h1.8V40.2z M31.5,36.2h-1.9c-0.1-0.4-0.3-0.8-0.5-1.3l1.4-1.4c0.3-0.3,0.3-0.7,0-1l-2.9-2.9
	c-0.3-0.3-0.7-0.3-1,0L25.2,31c-0.4-0.2-0.8-0.4-1.3-0.5v-1.9c0-0.4-0.3-0.7-0.7-0.7h-4.1c-0.4,0-0.7,0.3-0.7,0.7v1.9
	c-0.4,0.1-0.9,0.3-1.3,0.5l-1.4-1.4c-0.3-0.3-0.7-0.3-1,0l-2.9,2.9c-0.1,0.1-0.2,0.3-0.2,0.5c0,0.2,0.1,0.4,0.2,0.5l1.4,1.4
	c-0.2,0.4-0.4,0.8-0.5,1.3h-1.9c-0.4,0-0.7,0.3-0.7,0.7V41c0,0.4,0.3,0.7,0.7,0.7h1.9c0.1,0.4,0.3,0.8,0.5,1.3l-1.4,1.4
	c-0.1,0.1-0.2,0.3-0.2,0.5c0,0.2,0.1,0.4,0.2,0.5l2.9,2.9c0.1,0.1,0.3,0.2,0.5,0.2c0.2,0,0.4-0.1,0.5-0.2l1.4-1.4
	c0.4,0.2,0.8,0.4,1.3,0.5v1.9c0,0.4,0.3,0.7,0.7,0.7h4.1c0.4,0,0.7-0.3,0.7-0.7v-1.9c0.4-0.1,0.9-0.3,1.3-0.5l1.4,1.4
	c0.1,0.1,0.3,0.2,0.5,0.2c0.2,0,0.4-0.1,0.5-0.2l2.9-2.9c0.3-0.3,0.3-0.7,0-1l-1.4-1.4c0.2-0.4,0.4-0.8,0.5-1.3h1.9
	c0.4,0,0.7-0.3,0.7-0.7v-4.1C32.3,36.5,31.9,36.2,31.5,36.2z"/>
<path d="M21.1,43.4c-2.5,0-4.5-2-4.5-4.4c0-2.4,2-4.4,4.5-4.4s4.5,2,4.5,4.4C25.6,41.4,23.6,43.4,21.1,43.4z M21.1,33
	c-3.3,0-5.9,2.6-5.9,5.9c0,3.2,2.6,5.9,5.9,5.9c3.3,0,5.9-2.6,5.9-5.9C27,35.7,24.4,33,21.1,33z"/>
</svg>
