<?xml version="1.0" encoding="utf-8"?>
<!-- Generator: Adobe Illustrator 21.0.0, SVG Export Plug-In . SVG Version: 6.00 Build 0)  -->
<svg version="1.1" id="圖層_1" xmlns="http://www.w3.org/2000/svg" xmlns:xlink="http://www.w3.org/1999/xlink" x="0px" y="0px"
	 viewBox="0 0 68 68" style="enable-background:new 0 0 68 68;" xml:space="preserve">
   <style>
   .svg{
    fill:#FDD100;
   }
   </style>
<path class="svg" d="M57.4,19.9c0-0.1-0.1-0.1-0.1-0.2c0,0-0.1-0.1-0.1-0.1c-0.1-0.1-0.2-0.2-0.3-0.2c0,0,0,0,0,0l-22.8-9.3c0,0,0,0,0,0l0,0
	c0,0-0.1,0-0.1,0c-0.1,0-0.2-0.1-0.3-0.1c-0.1,0-0.2,0-0.3,0c0,0-0.1,0-0.1,0l0,0c0,0,0,0,0,0l-22.1,8.8c0,0,0,0,0,0c0,0,0,0,0,0
	C11,18.9,11,19,10.9,19c0,0,0,0-0.1,0c0,0-0.1,0-0.1,0.1c0,0,0,0,0,0c0,0-0.1,0.1-0.1,0.1c0,0,0,0,0,0c0,0-0.1,0.1-0.1,0.1
	c0,0,0,0,0,0c0,0,0,0,0,0c0,0,0,0.1,0,0.1c0,0.1,0,0.1,0,0.2c0,0,0,0,0,0v28.4c0,0.5,0.4,0.9,0.9,1l21.9,8.7c0,0,0,0,0,0l0,0
	c0,0,0,0,0,0c0.1,0,0.2,0.1,0.3,0.1c0,0,0,0,0,0c0,0,0,0,0,0s0,0,0,0c0,0,0,0,0,0c0.1,0,0.2,0,0.3-0.1c0,0,0,0,0,0l22.8-8.8
	c0,0,0,0,0,0c0.1,0,0.1-0.1,0.2-0.1c0,0,0.1-0.1,0.1-0.1c0,0,0.1-0.1,0.1-0.1c0-0.1,0.1-0.1,0.1-0.2c0,0,0-0.1,0-0.1
	c0-0.1,0-0.2,0.1-0.3c0,0,0,0,0,0V20.3c0,0,0,0,0,0C57.5,20.2,57.5,20,57.4,19.9z M33.7,12.1l5.3,2.2l-19.4,7.6l-5.3-2L33.7,12.1z
	 M45.1,16.8l-19.6,7.4l-3.2-1.2l19.1-7.5c0.1,0,0.1-0.1,0.2-0.1L45.1,16.8z M53.6,20.2l-19.9,7.1c0,0,0,0,0,0l-5.3-2l19.5-7.4
	L53.6,20.2z M24.6,30l-4-1.5v-4.1l4,1.5V30z M12.5,21.3l6.1,2.3v5.6c0,0,0,0,0,0c0,0.1,0,0.2,0,0.2c0,0,0,0.1,0,0.1
	c0,0.1,0.1,0.1,0.1,0.2c0,0.1,0.1,0.1,0.1,0.2c0,0,0.1,0.1,0.1,0.1c0.1,0,0.1,0.1,0.2,0.1c0,0,0,0,0,0l6,2.3c0.1,0,0.2,0.1,0.4,0.1
	c0.1,0,0.2,0,0.3-0.1c0,0,0.1,0,0.1,0c0.1,0,0.1-0.1,0.2-0.1c0,0,0.1,0,0.1-0.1c0.1-0.1,0.1-0.1,0.2-0.2c0,0,0,0,0-0.1c0,0,0,0,0,0
	c0-0.1,0-0.1,0-0.2c0-0.1,0-0.1,0-0.2v-4.8l6.1,2.3v26.5l-20.2-8V21.3z M34.7,29.1l20.8-7.4v25.9l-20.8,8V29.1z"/>
</svg>
