<?xml version="1.0" encoding="utf-8"?>
<!-- Generator: Adobe Illustrator 21.0.0, SVG Export Plug-In . SVG Version: 6.00 Build 0)  -->
<svg version="1.1" id="圖層_1" xmlns="http://www.w3.org/2000/svg" xmlns:xlink="http://www.w3.org/1999/xlink" x="0px" y="0px"
	 viewBox="0 0 68 68" style="enable-background:new 0 0 68 68;" xml:space="preserve">
   <style>
   .svg{
    fill:#FDD100;
   }
   </style>
<path class="svg" d="M34,10.5C21,10.5,10.5,21,10.5,34S21,57.5,34,57.5S57.5,47,57.5,34S47,10.5,34,10.5z M45.7,39.5c0.4,0,0.8,0.4,0.8,0.8
	c0,0.3-0.1,0.5-0.4,0.7c-0.3,0.2-0.6,0.2-0.9,0c0,0,0,0,0,0c-0.2-0.1-0.3-0.4-0.3-0.6C44.9,39.9,45.2,39.5,45.7,39.5z M46.9,50.6
	v-4.9c0,0.3,0.2,0.6,0.4,0.9c0.2,0.2,0.5,0.3,0.8,0.3c0.3,0,0.7-0.1,0.9-0.4c3.1-3.6,4.9-8.3,4.9-13.1c0-4.5-1.5-8.8-4.3-12.4
	c0,0,0,0,0,0c-0.4-0.5-1.2-0.6-1.7-0.2c-0.3,0.2-0.4,0.5-0.5,0.8c0,0.3,0.1,0.7,0.3,0.9c2.5,3.1,3.8,6.9,3.8,10.9
	c0,4.2-1.5,8.3-4.3,11.4c-0.2,0.2-0.3,0.6-0.3,0.9v-2.3c1.2-0.5,2-1.7,2-3c0-1.8-1.5-3.3-3.3-3.3c-1.8,0-3.3,1.5-3.3,3.3
	c0,1.3,0.8,2.5,2,3v8.9C41.3,54.1,37.7,55,34,55s-7.3-1-10.4-2.8v-8.9c0.3-0.1,0.5-0.3,0.8-0.4l6.4,3.6c0,0.1,0,0.3,0,0.4
	c0,1.8,1.5,3.3,3.3,3.3s3.3-1.5,3.3-3.3s-1.5-3.3-3.3-3.3c-0.7,0-1.5,0.3-2,0.7l-6.4-3.6c0-0.1,0-0.3,0-0.4c0-1.8-1.5-3.3-3.3-3.3
	c-1.8,0-3.3,1.5-3.3,3.3c0,1.3,0.8,2.5,2,3v2.3c0-0.3-0.1-0.6-0.3-0.9c-2.8-3.2-4.3-7.2-4.3-11.4c0-4,1.3-7.7,3.8-10.9
	c0.2-0.3,0.3-0.6,0.3-0.9c0-0.3-0.2-0.6-0.5-0.8c-0.5-0.4-1.3-0.3-1.7,0.2c-2.8,3.6-4.3,7.9-4.3,12.4c0,4.8,1.7,9.4,4.9,13.1
	c0.2,0.3,0.6,0.4,0.9,0.4c0.3,0,0.6-0.1,0.8-0.3c0.3-0.2,0.4-0.5,0.4-0.9v4.9C16,46.6,13,40.5,13,34s3-12.6,8.1-16.6v7.2
	c-1.2,0.5-2,1.7-2,3c0,1.8,1.5,3.3,3.3,3.3c1.8,0,3.3-1.5,3.3-3.3c0-1.3-0.8-2.5-2-3v-8.9c2.8-1.6,5.9-2.5,9.2-2.7v5
	c-1.2,0.5-2,1.7-2,3c0,1.8,1.5,3.3,3.3,3.3s3.3-1.5,3.3-3.3c0-1.3-0.8-2.5-2-3v-5c3.3,0.2,6.4,1.1,9.2,2.7v8.9c-1.2,0.5-2,1.7-2,3
	c0,0.1,0,0.2,0,0.3l-6.3,3.4c-0.6-0.5-1.3-0.8-2.1-0.8c-1.8,0-3.3,1.5-3.3,3.3s1.5,3.3,3.3,3.3s3.3-1.5,3.3-3.3c0-0.1,0-0.2,0-0.4
	l6.3-3.4c0.6,0.5,1.3,0.7,2.1,0.7c1.8,0,3.3-1.5,3.3-3.3c0-1.3-0.8-2.5-2-3v-7.2C52,21.4,55,27.5,55,34S52,46.6,46.9,50.6z
	 M33.2,46.9c0-0.3,0.2-0.6,0.5-0.7c0.1,0,0.2-0.1,0.3-0.1c0.4,0,0.8,0.4,0.8,0.8s-0.4,0.8-0.8,0.8C33.6,47.7,33.3,47.4,33.2,46.9
	L33.2,46.9z M22.3,39.5c0.4,0,0.7,0.3,0.8,0.7l0,0.1c0,0.6-0.7,1-1.3,0.6c-0.2-0.1-0.3-0.4-0.3-0.6C21.5,39.9,21.9,39.5,22.3,39.5z
	 M34,21.9c-0.4,0-0.8-0.4-0.8-0.8c0-0.3,0.1-0.5,0.3-0.7c0.1-0.1,0.3-0.1,0.5-0.1s0.3,0,0.5,0.1c0,0,0,0,0,0
	c0.2,0.1,0.3,0.4,0.3,0.6C34.8,21.5,34.4,21.9,34,21.9z M22.3,28.5c-0.4,0-0.8-0.4-0.8-0.8c0-0.3,0.1-0.5,0.4-0.7
	c0.1-0.1,0.3-0.1,0.4-0.1c0.2,0,0.3,0.1,0.4,0.1c0,0,0,0,0,0c0.2,0.1,0.3,0.4,0.3,0.6C23.1,28.1,22.8,28.5,22.3,28.5z M35.3,34
	l-0.5,0.1c0,0.4-0.4,0.7-0.8,0.7c-0.4,0-0.8-0.4-0.8-0.8s0.4-0.8,0.8-0.8c0.1,0,0.2,0,0.4,0.1c0.3,0.1,0.4,0.4,0.4,0.7L35.3,34
	C35.3,34,35.3,34,35.3,34z M45.3,28.4c-0.3-0.1-0.4-0.4-0.4-0.7l0-0.1c0-0.2,0.2-0.4,0.3-0.6c0.1-0.1,0.3-0.1,0.4-0.1
	c0.2,0,0.3,0,0.5,0.2c0.2,0.1,0.3,0.4,0.3,0.6C46.5,28.2,45.9,28.7,45.3,28.4z"/>
</svg>
