<?xml version="1.0" encoding="utf-8"?>
<!-- Generator: Adobe Illustrator 21.0.0, SVG Export Plug-In . SVG Version: 6.00 Build 0)  -->
<svg version="1.1" id="圖層_1" xmlns="http://www.w3.org/2000/svg" xmlns:xlink="http://www.w3.org/1999/xlink" x="0px" y="0px"
	 viewBox="0 0 68 68" style="enable-background:new 0 0 68 68;" xml:space="preserve">
   <style>
   .svg{
    fill:#FDD100;
   }
   </style>
<g>
	<path class="svg" d="M34,52.8c4.2,0,8.1-2,10.7-5.3c0.4-0.5,0.3-1.1-0.2-1.5c-0.5-0.4-1.1-0.3-1.5,0.2c-2.2,2.9-5.5,4.5-9,4.5s-6.8-1.6-9-4.5
		c-0.3-0.5-1-0.6-1.5-0.2c-0.5,0.4-0.6,1-0.2,1.5C25.9,50.8,29.8,52.8,34,52.8z"/>
	<path class="svg" d="M55.4,21.2c1-1,1.6-2.4,1.6-3.9c0-1.5-0.6-2.8-1.6-3.9c-1-1-2.4-1.6-3.8-1.6c-1.5,0-2.8,0.6-3.8,1.6l-5.2,5.3
		c-1.1-0.5-2.2-0.9-3.4-1.2l-3.8-6.1c-0.2-0.3-0.5-0.5-0.9-0.5H17.5c-0.6,0-1.1,0.5-1.1,1.1v4.8h-0.1c-3,0-5.4,2.4-5.4,5.4v18
		c0,0.6,0.5,1.1,1.1,1.1h4.1c1,8.8,8.5,15.7,17.5,15.7c9,0,16.5-6.9,17.6-15.7h3.5c0.6,0,1-0.4,1.1-1c0-0.4,0-0.8,0-1.1
		c0-5.2-1.8-9.9-4.7-13.7L55.4,21.2z M49.2,15c0.6-0.6,1.5-1,2.3-1c0.9,0,1.7,0.4,2.3,1s1,1.5,1,2.4c0,0.9-0.3,1.7-1,2.4l-4.1,4.2
		c-1.5-1.6-3.3-3-5.3-4.2L49.2,15z M18.5,13.1h15.3l2.5,3.9c-0.8-0.1-1.7-0.2-2.6-0.2H18.5V13.1z M33.7,54.9
		c-7.9,0-14.4-5.9-15.4-13.6h30.8C48.1,49,41.6,54.9,33.7,54.9z M26.3,39.2c0-4.1,3.3-7.5,7.4-7.5c4.1,0,7.4,3.3,7.4,7.5h-5.3
		c0-1.2-0.9-2.1-2.1-2.1c-1.2,0-2.1,1-2.1,2.1H26.3z M53.7,39.2H43.2c0-5.3-4.3-9.6-9.5-9.6s-9.5,4.3-9.5,9.6H13.1V22.3
		c0-1.8,1.5-3.3,3.2-3.3h17.3C44.7,19,53.7,28.1,53.7,39.2z"/>
	<path class="svg" d="M21.1,26.4h-3.8c-0.6,0-1.1,0.5-1.1,1.1c0,0.6,0.5,1.1,1.1,1.1h3.8c0.6,0,1.1-0.5,1.1-1.1C22.2,26.9,21.7,26.4,21.1,26.4z"
		/>
	<path class="svg" d="M21.1,21.7h-3.8c-0.6,0-1.1,0.5-1.1,1.1c0,0.6,0.5,1.1,1.1,1.1h3.8c0.6,0,1.1-0.5,1.1-1.1C22.2,22.2,21.7,21.7,21.1,21.7z"
		/>
</g>
</svg>
