<?xml version="1.0" encoding="utf-8"?>
<!-- Generator: Adobe Illustrator 21.0.0, SVG Export Plug-In . SVG Version: 6.00 Build 0)  -->
<svg version="1.1" id="圖層_1" xmlns="http://www.w3.org/2000/svg" xmlns:xlink="http://www.w3.org/1999/xlink" x="0px" y="0px"
	 viewBox="0 0 68 68" style="enable-background:new 0 0 68 68;" xml:space="preserve">
   <style>
   .svg{
    fill:#FDD100;
   }
   </style>
<g>
	<path class="svg" d="M55.9,32.1c-0.6,0-1,0.5-1,1c0,0.3,0,0.6,0,0.9c0,12.1-9.9,22-22.1,22c-8.8,0-16.5-5.2-20-12.6c4.2-1,9.8-2.8,17.3-5.7
		c0.5-0.2,0.8-0.8,0.6-1.3c-0.2-0.5-0.8-0.8-1.3-0.6c-7.8,3-13.4,4.8-17.4,5.7c-0.9-2.3-1.3-4.9-1.3-7.5c0-12.1,9.9-22,22.1-22
		c6.2,0,11.9,2.5,16.1,6.9c0.4,0.4,1,0.4,1.4,0c0.4-0.4,0.4-1,0-1.4C45.7,12.7,39.5,10,32.8,10C19.5,10,8.7,20.8,8.7,34
		c0,2.8,0.5,5.5,1.4,8c-6.1,1.3-7.6,0.4-7.9-0.1c-0.6-0.9,0.9-3.5,2.3-5c0.4-0.4,0.4-1-0.1-1.4c-0.4-0.4-1-0.4-1.4,0.1
		c-0.7,0.8-4.3,4.8-2.5,7.5c0.6,0.8,1.7,1.6,4.4,1.6c1.5,0,3.4-0.2,5.9-0.8C14.6,52.2,23,58,32.8,58c13.3,0,24.1-10.8,24.1-24
		c0-0.3,0-0.7,0-1C56.9,32.5,56.4,32,55.9,32.1z"/>
	<path class="svg" d="M67.3,20.4C67.3,20.4,67.3,20.3,67.3,20.4c-2.5-2.5-6.9-0.7-7-0.6l-7.7,3c-1.4,0-6.3-1.7-9.5-3c-3.6-1.4-6.7-0.2-6.9-0.1
		c-0.3,0.1-0.6,0.4-0.6,0.8s0.1,0.7,0.3,0.9l6.4,5.4l-2.2,0.9C38.5,28.5,37,28,37,28l-2.9-0.9c-2.8-0.8-4.7,0.4-4.8,0.5
		c-0.3,0.2-0.4,0.5-0.4,0.8s0.1,0.6,0.3,0.8l5.9,5.2c1,0.9,2.3,1.1,3.5,1.1c1.8,0,3.5-0.6,3.8-0.7l23.3-9.3c1.3-0.6,2.1-1.4,2.3-2.4
		C68.3,21.7,67.4,20.5,67.3,20.4z M66,22.6c-0.1,0.5-0.7,0.9-1.2,1.1l-23.3,9.3c-0.9,0.4-3.9,1.1-5.2-0.1l-4.5-4c0.5,0,1,0,1.7,0.2
		l2.9,0.9c0.1,0,2.2,0.7,4.7-0.4l3.6-1.6c0.3-0.1,0.5-0.4,0.6-0.8s-0.1-0.7-0.3-0.9l-6.1-5.1c1-0.1,2.2,0,3.5,0.5
		c1.4,0.6,8.5,3.4,10.6,3.1c0.1,0,0.2,0,0.2-0.1l7.8-3.1c0.9-0.4,3.5-1.1,4.7,0C65.8,21.8,66.1,22.2,66,22.6z"/>
</g>
</svg>
