<?xml version="1.0" encoding="utf-8"?>
<!-- Generator: Adobe Illustrator 21.0.0, SVG Export Plug-In . SVG Version: 6.00 Build 0)  -->
<svg version="1.1" id="圖層_1" xmlns="http://www.w3.org/2000/svg" xmlns:xlink="http://www.w3.org/1999/xlink" x="0px" y="0px"
	 viewBox="0 0 68 68" style="enable-background:new 0 0 68 68;" xml:space="preserve">
   <style>
   .svg{
    fill:#FDD100;
   }
   </style>
<g>
	<path class="svg" d="M46.5,29c-7,0-12.9,5.4-13.8,12.4H17.6c-1.3-0.7-2.7-1.1-4.3-1.1c-4.9,0-8.8,4-8.8,8.9c0,4.9,3.9,8.9,8.8,8.9
		c4.9,0,8.8-4,8.8-8.9c0-2.2-0.8-4.2-2.1-5.7h12.5c0,0,0,0.1,0,0.1c0,8,6.3,14.5,14,14.5s14-6.5,14-14.5S54.2,29,46.5,29z M13.3,56
		c-3.7,0-6.8-3.1-6.8-6.9c0-3.8,3.1-6.9,6.8-6.9s6.8,3.1,6.8,6.9C20.1,52.9,17.1,56,13.3,56z M46.5,56c-6.6,0-12-5.6-12-12.5
		S39.9,31,46.5,31s12,5.6,12,12.5S53.1,56,46.5,56z"/>
	<path class="svg" d="M46.5,37.3c-3.3,0-6,2.8-6,6.2s2.7,6.2,6,6.2s6-2.8,6-6.2S49.8,37.3,46.5,37.3z M46.5,47.7c-2.2,0-4-1.9-4-4.2
		s1.8-4.2,4-4.2s4,1.9,4,4.2S48.7,47.7,46.5,47.7z"/>
	<path class="svg" d="M7.1,33l1.7,4.1c0.2,0.4,0.5,0.6,0.9,0.6c0.1,0,0.3,0,0.4-0.1c0,0,0,0,0.1,0h2.9c0.6,0,1-0.4,1-1s-0.4-1-1-1h-2.7l-1.4-3.4
		c-0.2-0.4-0.3-0.8-0.3-1.2H12c0.6,0,1-0.4,1-1s-0.4-1-1-1H8.6c0.1-0.8,0.4-1.5,0.9-2.2c1.1-1.6,2.8-2.5,4.7-2.5h3.9v9.9
		c0,0.6,0.4,1,1,1s1-0.4,1-1V20c0-0.4,0-1.1,0.1-1.2c0,0,0,0,0.2,0h2.2c0.1,0,0.1,0,0.1,0c0.1,0.2,0.1,0.8,0.1,1.2v6.7
		c0,0.6,0.4,1,1,1s1-0.4,1-1v-2.4h6.2c0.1,0,0.1,0,0.1,0.1v4.9c-0.3,0.4-0.8,0.9-1.2,1.4c-1.6,1.8-3.4,3.8-4.1,5.6
		c-0.1,0.3-0.1,0.6,0.1,0.9c0.2,0.3,0.5,0.4,0.8,0.4h2c0.6,0,1-0.4,1-1s-0.4-1-1-1h-0.4c0.8-1.2,2-2.5,3-3.6
		c0.6-0.6,1.1-1.2,1.5-1.7c0.1-0.2,0.2-0.4,0.2-0.6v-5.3c0-0.2,0-0.4-0.1-0.6l3-3l2.1,2.1c0.2,0.2,0.5,0.3,0.7,0.3
		c0.3,0,0.5-0.1,0.7-0.3c0.4-0.4,0.4-1,0-1.4l-5.6-5.6c-0.4-0.4-1-0.4-1.4,0c-0.4,0.4-0.4,1,0,1.4l2.1,2.1l-3,3
		c-0.2-0.1-0.4-0.1-0.6-0.1h-6.2V20c0-1.1,0-3.3-2.2-3.3h-0.1V11c0-0.6-0.4-1-1-1s-1,0.4-1,1v5.7h-0.1c-2.2,0-2.2,2.1-2.2,3.3v2.4
		h-3.9c-2.6,0-4.9,1.3-6.4,3.4C7,27,6.5,28.5,6.5,30c0,0,0,0,0,0c0,0,0,0,0,0C6.5,31.1,6.7,32.1,7.1,33z"/>
	<path class="svg" d="M63.4,34.7c-2.4-4.6-6.3-8.1-11-10v-6.1c0-0.6-0.4-1-1-1h-1.1c-3,0-5.5,2.5-5.5,5.5v2.2c0,0.6,0.4,1,1,1s1-0.4,1-1v-2.2
		c0-1.9,1.6-3.5,3.5-3.5h0.1v5.8c0,0.4,0.3,0.8,0.7,0.9c4.6,1.6,8.4,4.9,10.6,9.3c0.2,0.3,0.5,0.5,0.9,0.5c0.2,0,0.3,0,0.5-0.1
		C63.4,35.8,63.6,35.2,63.4,34.7z"/>
</g>
</svg>
