<?xml version="1.0" encoding="utf-8"?>
<!-- Generator: Adobe Illustrator 21.0.0, SVG Export Plug-In . SVG Version: 6.00 Build 0)  -->
<svg version="1.1" id="圖層_1" xmlns="http://www.w3.org/2000/svg" xmlns:xlink="http://www.w3.org/1999/xlink" x="0px" y="0px"
	 viewBox="0 0 68 68" style="enable-background:new 0 0 68 68;" xml:space="preserve">
   <style>
   .svg{
    fill:#FDD100;
   }
   </style>
<g>
	<path class="svg" d="M58.8,33.3L39.7,14.2c-5.6-5.6-14.8-5.6-20.5,0C15,18.5,13.8,25,16.3,30.5c0.2,0.5,0.8,0.7,1.3,0.5
		c0.5-0.2,0.7-0.8,0.5-1.3C16,25,17,19.3,20.6,15.6c4.9-4.9,12.8-4.9,17.6,0l8.8,8.8L36.5,35.1c-0.4,0.4-0.4,1,0,1.4
		c0.2,0.2,0.5,0.3,0.7,0.3s0.5-0.1,0.7-0.3l10.6-10.6l8.8,8.8c4.9,4.9,4.9,12.8,0,17.6c-4.9,4.9-12.8,4.9-17.6,0l0,0
		c0.1,0,0.2,0.1,0.3,0.1c0.3,0,0.5-0.1,0.7-0.3l15.2-15.2c0.4-0.4,0.4-1,0-1.4s-1-0.4-1.4,0L39.3,50.7c-0.3,0.3-0.4,0.7-0.2,1.1
		c-0.4-0.4-1-0.4-1.4,0c-0.4,0.4-0.4,1,0,1.4l0.6,0.6c2.8,2.8,6.5,4.2,10.2,4.2s7.4-1.4,10.2-4.2C64.4,48.1,64.4,38.9,58.8,33.3z"/>
	<path class="svg" d="M24.9,18.5c-0.4-0.4-1-0.4-1.4,0c-1.6,1.6-2.5,3.7-2.5,5.9c0,2.3,0.9,4.4,2.5,6c0.2,0.2,0.5,0.3,0.7,0.3s0.5-0.1,0.7-0.3
		c0.4-0.4,0.4-1,0-1.4c-1.2-1.2-1.9-2.8-1.9-4.6c0-1.7,0.7-3.3,1.9-4.5C25.3,19.5,25.3,18.9,24.9,18.5z"/>
	<path class="svg" d="M38.8,42.8l11.5-11.5c0.4-0.4,0.4-1,0-1.4s-1-0.4-1.4,0L37.3,41.4c-0.4,0.4-0.4,1,0,1.4c0.2,0.2,0.5,0.3,0.7,0.3
		S38.6,43,38.8,42.8z"/>
	<path class="svg" d="M48.6,53c-0.4,0.4-0.4,1,0,1.4c0.2,0.2,0.5,0.3,0.7,0.3s0.5-0.1,0.7-0.3l8.1-8.1c0.4-0.4,0.4-1,0-1.4s-1-0.4-1.4,0L48.6,53
		z"/>
	<path class="svg" d="M38.4,46c-0.4,0.4-0.4,1,0,1.4c0.2,0.2,0.5,0.3,0.7,0.3s0.5-0.1,0.7-0.3l11.5-11.5c0.4-0.4,0.4-1,0-1.4s-1-0.4-1.4,0
		L38.4,46z"/>
	<path class="svg" d="M55.5,40.2L43.9,51.8c-0.4,0.4-0.4,1,0,1.4c0.2,0.2,0.5,0.3,0.7,0.3s0.5-0.1,0.7-0.3l11.6-11.6c0.4-0.4,0.4-1,0-1.4
		S55.9,39.8,55.5,40.2z"/>
	<path class="svg" d="M20.7,32.1C15,32.1,9.8,34,7.1,36.9c-1.3,1.4-2,3.1-2,4.7v7.7c0,4.9,6.9,8.7,15.6,8.7c8.8,0,15.6-3.8,15.6-8.7v-7.7
		C36.3,36.3,29.4,32.1,20.7,32.1z M34.3,49.3c0,3.6-6.2,6.7-13.6,6.7C13.3,56,7,52.9,7,49.3v-3c2.7,2.9,7.7,4.8,13.6,4.8
		c5.9,0,11-1.9,13.6-4.8V49.3z M20.7,49.1C13.3,49.1,7,45.7,7,41.6c0-1.2,0.5-2.3,1.5-3.4c2.4-2.5,7.1-4.1,12.1-4.1
		c7.4,0,13.6,3.4,13.6,7.5C34.3,45.7,28.1,49.1,20.7,49.1z"/>
	<path class="svg" d="M26.1,37.3l-11.9,6.9c-0.5,0.3-0.6,0.9-0.4,1.4c0.2,0.3,0.5,0.5,0.9,0.5c0.2,0,0.3,0,0.5-0.1L27.1,39
		c0.5-0.3,0.6-0.9,0.4-1.4C27.2,37.2,26.6,37,26.1,37.3z"/>
</g>
</svg>
