<?xml version="1.0" encoding="utf-8"?>
<!-- Generator: Adobe Illustrator 21.0.0, SVG Export Plug-In . SVG Version: 6.00 Build 0)  -->
<svg version="1.1" id="圖層_1" xmlns="http://www.w3.org/2000/svg" xmlns:xlink="http://www.w3.org/1999/xlink" x="0px" y="0px"
	 viewBox="0 0 68 68" style="enable-background:new 0 0 68 68;" xml:space="preserve">
   <style>
   .svg{
    fill:#FDD100;
   }
   </style>
<g>
	<path class="svg" d="M46.2,29.2V13.4c0-1.6-1.3-2.9-2.9-2.9h-0.3c-2.6,0-3.2,2.6-3.7,6.6l-0.1,1c-0.1,0.7-0.2,1.1-0.2,1.4
		c-0.1,0.6-0.1,0.8-0.1,2.1h-12c-1.4,0-2.6,1.2-2.6,2.6c0,1.4,1.2,2.6,2.6,2.6h0.3v6.4h-7.6c-1.3,0-2.3,1-2.3,2.3
		c0,0.8,0.5,1.6,1.2,2v4.3h-4.9c-1.1,0-2,0.9-2,2c0,1.1,0.9,2,2,2h1.8c-1.4,1.3-2.2,3.1-2.2,5c0,3.7,3.1,6.8,6.8,6.8
		c3.8,0,6.8-3,6.8-6.8c0-2.3-1.2-4.4-3.2-5.7c0.3-0.4,0.5-0.8,0.5-1.3c0-1.1-0.9-2-1.9-2v-4.1h6.1c-0.7,1.7-1.1,3.5-1.1,5.4
		c0,8,6.6,14.5,14.6,14.5S56.5,51,56.5,43C56.5,36.7,52.3,31.1,46.2,29.2z M41.9,55.7C34.8,55.7,29,50,29,43c0-7,5.8-12.7,12.9-12.7
		c7.1,0,12.9,5.7,12.9,12.7C54.7,50,49,55.7,41.9,55.7z M20.5,37.6v4.1h-0.2v-4.1H20.5z M19.5,34.9h10.3c-0.2,0.3-0.4,0.7-0.6,1
		h-9.7c-0.3,0-0.5-0.2-0.5-0.5C19,35.1,19.2,34.9,19.5,34.9z M29.2,26.7v6.4h-0.2v-6.4H29.2z M26.8,23.3h12.9c0.5,0,0.8,0.4,0.8,0.8
		c0,0.5-0.4,0.8-0.8,0.8H26.8c-0.5,0-0.8-0.4-0.8-0.8C26,23.7,26.4,23.3,26.8,23.3z M42.9,12.3h0.3c0.6,0,1.1,0.5,1.1,1.1v15.4
		c-0.8-0.1-1.7-0.2-2.5-0.2c-0.1,0-0.3,0-0.4,0c-0.1-0.5-0.3-1.3-0.4-2.2c0.8-0.5,1.3-1.3,1.3-2.2c0-1.1-0.7-2.1-1.7-2.4
		c-0.1-1.3-0.1-1.4,0-2c0.1-0.3,0.1-0.7,0.2-1.4l0.1-1.1C41.3,15,41.8,12.3,42.9,12.3z M30.9,26.7h8.4c0.1,0.8,0.3,1.5,0.4,2.1
		c-3.2,0.5-6.1,2-8.4,4.4h-0.3V26.7z M20,55.7c-2.8,0-5.1-2.2-5.1-5c0-2.8,2.3-5,5.1-5s5.1,2.2,5.1,5C25,53.5,22.8,55.7,20,55.7z
		 M13.5,43.5h8.6c0.1,0,0.3,0.1,0.3,0.3c0,0.1-0.1,0.3-0.3,0.3h-8.6c-0.1,0-0.3-0.1-0.3-0.3C13.3,43.6,13.4,43.5,13.5,43.5z"/>
	<path class="svg" d="M20,48c-1.5,0-2.8,1.2-2.8,2.8c0,1.5,1.3,2.8,2.8,2.8s2.8-1.3,2.8-2.8C22.8,49.2,21.5,48,20,48z M20,49.7c0.6,0,1,0.5,1,1
		c0,0.6-0.5,1-1,1s-1-0.5-1-1C18.9,50.2,19.4,49.7,20,49.7z"/>
	<path class="svg" d="M50.8,34.3C50.8,34.3,50.8,34.3,50.8,34.3c-2.4-2.4-5.6-3.7-8.9-3.7s-6.5,1.3-8.9,3.6c-2.4,2.4-3.7,5.5-3.7,8.8
		c0,6.8,5.6,12.4,12.6,12.4S54.4,49.9,54.4,43C54.4,39.7,53.1,36.7,50.8,34.3z M41,39.3c-0.4,0.1-0.8,0.3-1.2,0.5l-4.9-4.9
		c1.7-1.4,3.8-2.3,6.1-2.5V39.3z M38.6,41c-0.2,0.4-0.4,0.7-0.5,1.1h-7c0.2-2.2,1.1-4.3,2.5-6L38.6,41z M38.1,43.9
		c0.1,0.4,0.3,0.8,0.5,1.1l-4.9,4.9c-1.5-1.7-2.3-3.8-2.5-6H38.1z M34.9,51.2l4.9-4.9c0.4,0.2,0.8,0.4,1.2,0.5v6.9
		C38.7,53.5,36.6,52.6,34.9,51.2z M39.7,43c0-0.6,0.2-1.1,0.6-1.5c0.4-0.4,0.9-0.6,1.5-0.6C43,41,44,41.9,44,43c0,1.2-1,2.1-2.1,2.1
		c-0.5,0-1.1-0.2-1.5-0.6c0,0-0.1-0.1-0.1-0.1C39.9,44.1,39.7,43.6,39.7,43z M50.1,36.2c1.5,1.7,2.3,3.8,2.5,6h-7
		c-0.1-0.4-0.3-0.8-0.5-1.1L50.1,36.2z M48.8,34.9l-4.9,4.9c-0.4-0.2-0.7-0.4-1.2-0.5v-6.9C45,32.6,47.1,33.5,48.8,34.9z M42.8,46.8
		c0.4-0.1,0.8-0.3,1.2-0.5l4.9,4.9c-1.7,1.4-3.8,2.3-6.1,2.5V46.8z M45.2,45.1c0.2-0.4,0.4-0.7,0.5-1.1h7c-0.2,2.2-1.1,4.3-2.5,6
		L45.2,45.1z"/>
</g>
</svg>
