<?xml version="1.0" encoding="utf-8"?>
<!-- Generator: Adobe Illustrator 21.0.0, SVG Export Plug-In . SVG Version: 6.00 Build 0)  -->
<svg version="1.1" id="圖層_1" xmlns="http://www.w3.org/2000/svg" xmlns:xlink="http://www.w3.org/1999/xlink" x="0px" y="0px"
	 viewBox="0 0 145 58" style="enable-background:new 0 0 145 58;" xml:space="preserve">
<style type="text/css">
	.st0{fill:#221815;}
	.st1{fill:#E50012;}
	.st2{fill-rule:evenodd;clip-rule:evenodd;fill:#221815;}
</style>
<polygon class="st0" points="17.2,0.4 48.4,0.4 42.2,10.8 12.7,10.9 "/>
<polygon class="st0" points="23,12.4 35.7,12.4 35.7,31.9 23,31.9 "/>
<path class="st0" d="M50.3,0.4l-6.2,10.7l40.9,0c0,0-1.6-10.7-12.8-10.7L50.3,0.4z"/>
<path class="st0" d="M47.3,12.5l12.3,0v3.1h12.3c0,0,2.4,0.7,2.4-3h10.8c0,0,0.7,14-12.5,14c-13.2,0-12.8,0-12.8,0v5.3H47.3
	L47.3,12.5z"/>
<path class="st0" d="M86.6,11.1c0,0,1.3-11.1,14-11.1s34.3,0,34.3,0l-5.5,11.1L86.6,11.1z"/>
<path class="st0" d="M86.4,12.5c0,0-5.2,16.8,14.5,19.4l21.2,0l0-19.4l-15.3,0l-4,7.5h7.2v1.5l-8.6,0c0,0-8.8,0.3-4.3-9L86.4,12.5z"
	/>
<polygon class="st0" points="13.2,0.4 15.7,0.4 10.9,10.8 8.5,10.8 "/>
<polygon class="st0" points="10.2,0.4 12.1,0.4 7.2,10.8 5.2,10.8 "/>
<polygon class="st0" points="7.5,0.4 9,0.4 3.8,10.8 2.4,10.8 "/>
<polygon class="st0" points="133.5,11.1 131.1,11.1 136.4,0.3 139.1,0.3 "/>
<polygon class="st0" points="137.2,11.1 135.2,11.1 140.5,0.3 142.5,0.3 "/>
<polygon class="st0" points="139.7,11.1 138.3,11.1 143.6,0.3 145,0.3 "/>
<path class="st1" d="M4.9,52.5c2.7,0,4.9-2.2,4.9-4.8s-2.2-4.9-4.9-4.9c-2.7,0-4.9,2.2-4.9,4.9C0,50.3,2.2,52.5,4.9,52.5z"/>
<path class="st1" d="M139.9,52.5c2.7,0,4.9-2.2,4.9-4.8s-2.2-4.9-4.9-4.9c-2.7,0-4.9,2.2-4.9,4.9C135,50.3,137.2,52.5,139.9,52.5z"
	/>
<polygon class="st2" points="15.2,43.4 17.4,49.9 19.5,43.4 22.2,43.4 22.2,51.9 20.4,51.9 20.6,45.3 18.4,51.9 16.5,51.9 
	14.2,45.2 14.4,51.9 12.5,51.9 12.5,43.4 "/>
<path class="st2" d="M25.4,47.6c0,2.1,0.7,3,2.3,3c1.6,0,2.3-1,2.3-3s-0.7-3-2.3-3C26.1,44.7,25.4,45.6,25.4,47.6z M27.7,43.2
	c2.9,0,4.3,1.4,4.3,4.4s-1.4,4.4-4.3,4.4c-3,0-4.3-1.4-4.3-4.5C23.4,44.6,24.8,43.2,27.7,43.2z"/>
<polygon class="st2" points="32.3,44.9 32.3,43.4 39.7,43.4 39.7,44.9 36.9,44.9 36.9,51.9 35.1,51.9 35.1,44.9 "/>
<path class="st2" d="M42,47.6c0,2.1,0.7,3,2.3,3c1.6,0,2.3-1,2.3-3c0-2-0.7-3-2.3-3C42.8,44.7,42,45.6,42,47.6z M44.3,43.2
	c2.9,0,4.3,1.4,4.3,4.4c0,3-1.4,4.4-4.3,4.4c-3,0-4.3-1.4-4.3-4.5C40,44.6,41.4,43.2,44.3,43.2z"/>
<path class="st2" d="M51.6,44.9V47h2.2c1.1,0,1.6-0.2,1.6-1.1c0-0.9-0.5-1.1-1.6-1.1H51.6z M54.3,43.4c2,0,3,0.8,3,2.6
	c0,1.3-0.6,2.2-1.7,2.4l2.1,3.5l-2,0l-1.9-3.3h-2.1v3.3h-1.8v-8.5H54.3z"/>
<path class="st2" d="M61.6,44.9c-0.9,0-1.4,0.3-1.4,1.1c0,0.6,0.4,0.9,1.1,0.9h2.4c1.9,0,2.7,0.6,2.7,2.4c0,1.8-1,2.5-3,2.5h-4.8
	v-1.5h4.5c1,0,1.4-0.2,1.4-1c0-0.8-0.4-1-1.3-1h-2.1c-2,0-2.9-0.7-2.9-2.4c0-1.9,1-2.6,3-2.6h4.7v1.5L61.6,44.9z"/>
<path class="st2" d="M75.4,52c-2,0-3.1-0.9-3.1-2.3c0-0.9,0.4-1.5,1.2-2c-0.8-0.5-1.2-1.2-1.2-2.1c0-1.4,0.9-2.3,2.6-2.3l2.9,0V45
	h-2.4c-0.8,0-1.3,0.4-1.3,1c0,0.7,0.4,1,1.1,1h0.6v1.5h-0.6c-0.6,0-1,0.4-1,1c0,0.7,0.5,1.1,1.4,1.1c1.3,0,2.1-0.7,2.4-2.1h-1.2
	v-1.5h4.2v1.5h-1.1C79.2,50.8,77.8,52,75.4,52z"/>
<path class="st2" d="M88.5,44.8v5.5l2.1,0c1.6,0,2.1-0.7,2.1-2.8c0-2.1-0.5-2.8-2.1-2.8H88.5z M90.6,43.4c2.8,0,4.1,1.4,4.1,4.4
	c0,1.5-0.4,2.6-1.3,3.3c-0.8,0.7-1.6,0.7-2.7,0.7h-4l0-8.5H90.6z"/>
<path class="st2" d="M97.7,44.9V47h2.2c1.1,0,1.6-0.2,1.6-1.1c0-0.9-0.5-1.1-1.6-1.1H97.7z M100.3,43.4c2,0,3,0.8,3,2.5
	c0,1.3-0.6,2.2-1.7,2.4l2.1,3.5h-2l-1.9-3.3h-2.1l0,3.3h-1.8v-8.5H100.3z"/>
<rect x="104.9" y="43.4" class="st2" width="1.9" height="8.5"/>
<polygon class="st2" points="107.3,43.4 109.3,43.4 111.9,49.7 114.5,43.4 116.5,43.4 112.9,51.8 111,51.8 "/>
<path class="st2" d="M118.4,46.8h5v1.5h-5c0,1.5,0.6,2.1,2,2.1h3v1.5h-3c-1,0-1.8-0.1-2.7-0.7c-0.9-0.7-1.3-1.8-1.3-3.4
	c0-3,1.3-4.4,4-4.4h3v1.5h-3C119.2,44.8,118.5,45.5,118.4,46.8z"/>
<path class="st2" d="M127.8,44.9c-0.9,0-1.4,0.3-1.4,1.1c0,0.6,0.4,0.9,1.1,0.9h2.4c1.9,0,2.7,0.6,2.7,2.4c0,1.8-1,2.5-3,2.5h-4.8
	v-1.5h4.5c1,0,1.4-0.2,1.4-1c0-0.8-0.4-1-1.3-1h-2.1c-2,0-2.8-0.7-2.8-2.4c0-1.8,1-2.6,3-2.6h4.7v1.5H127.8z"/>
<path class="st2" d="M131.2,27.9v-1.1h0.9c0.4,0,0.9,0,0.9,0.5s-0.3,0.6-0.7,0.6H131.2z M132.8,28.5c0.7,0,1.1-0.3,1.1-1
	c0-0.4-0.1-0.8-0.5-1c-0.3-0.2-0.7-0.2-1.1-0.2h-1.9v3.9h0.8v-1.7h0.8l0.9,1.7h0.9L132.8,28.5z M132,31.8c2,0,3.6-1.6,3.6-3.6
	c0-2-1.6-3.6-3.6-3.6c-2,0-3.7,1.6-3.7,3.6C128.3,30.1,129.9,31.8,132,31.8z M132,31.1c-1.6,0-3-1.3-3-2.9c0-1.6,1.3-2.9,3-2.9
	s2.9,1.3,2.9,2.9C134.9,29.8,133.6,31.1,132,31.1z"/>
<rect x="4.7" y="55.4" class="st1" width="135.2" height="2.6"/>
<rect x="4.7" y="37.1" class="st1" width="135.2" height="2.6"/>
</svg>
